<?xml version="1.0" encoding="utf-8"?>
<!-- created with bpmn-js / http://bpmn.io -->
<!DOCTYPE svg PUBLIC "-//W3C//DTD SVG 1.1//EN" "http://www.w3.org/Graphics/SVG/1.1/DTD/svg11.dtd">
<svg xmlns="http://www.w3.org/2000/svg" xmlns:xlink="http://www.w3.org/1999/xlink" width="938" height="212" viewBox="58 48 938 212" version="1.1"><defs><pattern id="djs-grid-pattern-87427" width="10" height="10" patternUnits="userSpaceOnUse"><circle cx="0.5" cy="0.5" r="0.5" style="fill: rgb(204, 204, 204);"/></pattern></defs><g class="djs-group"><g class="djs-element djs-shape" data-element-id="sid-477D1DF3-C5FC-460F-8AD1-03D4B7C26FB6" style="display: block;" transform="matrix(1 0 0 1 75 144)"><g class="djs-visual"><circle cx="15" cy="15" r="15" style="stroke-linecap: round; stroke-linejoin: round; stroke: rgb(34, 36, 42); stroke-width: 2px; fill: white; fill-opacity: 0.95;"/></g><rect class="djs-hit djs-hit-all" x="0" y="0" width="30" height="30" style="fill: none; stroke-opacity: 0; stroke: white; stroke-width: 15px;"/><circle cx="15" cy="15" r="20" class="djs-outline" style="fill: none;"/></g></g><g class="djs-group"><g class="djs-element djs-shape" data-element-id="sid-477D1DF3-C5FC-460F-8AD1-03D4B7C26FB6_label" style="display: block;" transform="matrix(1 0 0 1 63 176)"><g class="djs-visual"><text lineHeight="1.2" class="djs-label" style="font-family: Arial, sans-serif; font-size: 11px; font-weight: normal; fill: rgb(34, 36, 42);"><tspan x="0" y="9.899999999999999">Application</tspan><tspan x="5.845834195613861" y="23.099999999999998">received</tspan></text></g><rect class="djs-hit djs-hit-all" x="0" y="0" width="54" height="27" style="fill: none; stroke-opacity: 0; stroke: white; stroke-width: 15px;"/><rect x="-5" y="-5" rx="4" width="64" height="37" class="djs-outline" style="fill: none;"/></g></g><g class="djs-group"><g class="djs-element djs-shape" data-element-id="sid-9953C816-D87A-48E6-B228-14C2EBF4C188" style="display: block;" transform="matrix(1 0 0 1 206 119)"><g class="djs-visual"><rect x="0" y="0" width="97" height="80" rx="10" ry="10" style="stroke-linecap: round; stroke-linejoin: round; stroke: rgb(34, 36, 42); stroke-width: 2px; fill: white; fill-opacity: 0.95;"/><text lineHeight="1.2" class="djs-label" style="font-family: Arial, sans-serif; font-size: 12px; font-weight: normal; fill: rgb(34, 36, 42);"><tspan x="31.293163299560547" y="36.4">Check </tspan><tspan x="11.479164123535156" y="50.8">completeness</tspan></text></g><rect class="djs-hit djs-hit-all" x="0" y="0" width="97" height="80" style="fill: none; stroke-opacity: 0; stroke: white; stroke-width: 15px;"/><rect x="-5" y="-5" rx="14" width="107" height="90" class="djs-outline" style="fill: none;"/></g></g><g class="djs-group"><g class="djs-element djs-shape" data-element-id="sid-08B606A8-2F7C-4DFD-BEA8-A0F4694AA576" style="display: block;" transform="matrix(1 0 0 1 950 145)"><g class="djs-visual"><circle cx="14" cy="14" r="14" style="stroke-linecap: round; stroke-linejoin: round; stroke: rgb(34, 36, 42); stroke-width: 4px; fill: white; fill-opacity: 0.95;"/></g><rect class="djs-hit djs-hit-all" x="0" y="0" width="28" height="28" style="fill: none; stroke-opacity: 0; stroke: white; stroke-width: 15px;"/><circle cx="14" cy="14" r="20" class="djs-outline" style="fill: none;"/></g></g><g class="djs-group"><g class="djs-element djs-shape" data-element-id="sid-08B606A8-2F7C-4DFD-BEA8-A0F4694AA576_label" style="display: block;" transform="matrix(1 0 0 1 937 175)"><g class="djs-visual"><text lineHeight="1.2" class="djs-label" style="font-family: Arial, sans-serif; font-size: 11px; font-weight: normal; fill: rgb(34, 36, 42);"><tspan x="0" y="9.899999999999999">Application</tspan><tspan x="1.2625002264976501" y="23.099999999999998">processed</tspan></text></g><rect class="djs-hit djs-hit-all" x="0" y="0" width="54" height="27" style="fill: none; stroke-opacity: 0; stroke: white; stroke-width: 15px;"/><rect x="-5" y="-5" rx="4" width="64" height="37" class="djs-outline" style="fill: none;"/></g></g><g class="djs-group"><g class="djs-element djs-shape" data-element-id="sid-4B24111F-B305-4608-9E12-744B47C44D0D" style="display: block;" transform="matrix(1 0 0 1 470 53)"><g class="djs-visual"><rect x="0" y="0" width="71" height="80" rx="10" ry="10" style="stroke-linecap: round; stroke-linejoin: round; stroke: rgb(34, 36, 42); stroke-width: 2px; fill: white; fill-opacity: 0.95;"/><text lineHeight="1.2" class="djs-label" style="font-family: Arial, sans-serif; font-size: 12px; font-weight: normal; fill: rgb(34, 36, 42);"><tspan x="18.293163299560547" y="29.200000000000003">Check </tspan><tspan x="20.62844944000244" y="43.6">credit </tspan><tspan x="17.628124237060547" y="58">history</tspan></text></g><rect class="djs-hit djs-hit-all" x="0" y="0" width="71" height="80" style="fill: none; stroke-opacity: 0; stroke: white; stroke-width: 15px;"/><rect x="-5" y="-5" rx="14" width="81" height="90" class="djs-outline" style="fill: none;"/></g></g><g class="djs-group"><g class="djs-element djs-shape" data-element-id="sid-A4FBE0D9-8D45-4B22-8D7C-217BEBBA3B06" style="display: block;" transform="matrix(1 0 0 1 545 139)"><g class="djs-visual"><polygon points="20,0 40,20 20,40 0,20" style="stroke-linecap: round; stroke-linejoin: round; stroke: rgb(34, 36, 42); stroke-width: 2px; fill: white; fill-opacity: 0.95;"/><path d="m 18.400000000000002,8 0,10 -10,0 0,3.9999999999999996 10,0 0,10 3.9999999999999996,0 0,-10 10,0 0,-3.9999999999999996 -10,0 0,-10 -3.9999999999999996,0 z" style="fill: rgb(34, 36, 42); stroke-linecap: round; stroke-linejoin: round; stroke: rgb(34, 36, 42); stroke-width: 1px;"/></g><rect class="djs-hit djs-hit-all" x="0" y="0" width="40" height="40" style="fill: none; stroke-opacity: 0; stroke: white; stroke-width: 15px;"/><rect x="2" y="2" rx="4" width="36" height="36" class="djs-outline" style="transform-box: fill-box; transform: rotate(45deg); transform-origin: center center; fill: none;"/></g></g><g class="djs-group"><g class="djs-element djs-shape" data-element-id="sid-02577CBF-ABA3-4EFD-9480-E1DFCF238B1C" style="display: block;" transform="matrix(1 0 0 1 620 119)"><g class="djs-visual"><rect x="0" y="0" width="85" height="80" rx="10" ry="10" style="stroke-linecap: round; stroke-linejoin: round; stroke: rgb(34, 36, 42); stroke-width: 2px; fill: white; fill-opacity: 0.95;"/><text lineHeight="1.2" class="djs-label" style="font-family: Arial, sans-serif; font-size: 12px; font-weight: normal; fill: rgb(34, 36, 42);"><tspan x="23.42499977350235" y="36.4">Assess </tspan><tspan x="13.812498092651367" y="50.8">application</tspan></text></g><rect class="djs-hit djs-hit-all" x="0" y="0" width="85" height="80" style="fill: none; stroke-opacity: 0; stroke: white; stroke-width: 15px;"/><rect x="-5" y="-5" rx="14" width="95" height="90" class="djs-outline" style="fill: none;"/></g></g><g class="djs-group"><g class="djs-element djs-shape" data-element-id="sid-622A1118-4766-43B2-A004-7DADE521982D" style="display: block;" transform="matrix(1 0 0 1 795 175)"><g class="djs-visual"><rect x="0" y="0" width="71" height="80" rx="10" ry="10" style="stroke-linecap: round; stroke-linejoin: round; stroke: rgb(34, 36, 42); stroke-width: 2px; fill: white; fill-opacity: 0.95;"/><text lineHeight="1.2" class="djs-label" style="font-family: Arial, sans-serif; font-size: 12px; font-weight: normal; fill: rgb(34, 36, 42);"><tspan x="19.963085174560547" y="36.4">Notify </tspan><tspan x="12.820831298828125" y="50.8">rejection</tspan></text></g><rect class="djs-hit djs-hit-all" x="0" y="0" width="71" height="80" style="fill: none; stroke-opacity: 0; stroke: white; stroke-width: 15px;"/><rect x="-5" y="-5" rx="14" width="81" height="90" class="djs-outline" style="fill: none;"/></g></g><g class="djs-group"><g class="djs-element djs-shape" data-element-id="sid-503A048D-6344-446A-8D67-172B164CF8FA" style="display: block;" transform="matrix(1 0 0 1 795 55)"><g class="djs-visual"><rect x="0" y="0" width="71" height="80" rx="10" ry="10" style="stroke-linecap: round; stroke-linejoin: round; stroke: rgb(34, 36, 42); stroke-width: 2px; fill: white; fill-opacity: 0.95;"/><text lineHeight="1.2" class="djs-label" style="font-family: Arial, sans-serif; font-size: 12px; font-weight: normal; fill: rgb(34, 36, 42);"><tspan x="20.69837188720703" y="29.200000000000003">Make </tspan><tspan x="20.62844944000244" y="43.6">credit </tspan><tspan x="23.20058536529541" y="58">offer</tspan></text></g><rect class="djs-hit djs-hit-all" x="0" y="0" width="71" height="80" style="fill: none; stroke-opacity: 0; stroke: white; stroke-width: 15px;"/><rect x="-5" y="-5" rx="14" width="81" height="90" class="djs-outline" style="fill: none;"/></g></g><g class="djs-group"><g class="djs-element djs-shape" data-element-id="sid-6B518C80-2B96-4C95-B6DE-F9E4A75FF191" style="display: block;" transform="matrix(1 0 0 1 410 139)"><g class="djs-visual"><polygon points="20,0 40,20 20,40 0,20" style="stroke-linecap: round; stroke-linejoin: round; stroke: rgb(34, 36, 42); stroke-width: 2px; fill: white; fill-opacity: 0.95;"/><path d="m 18.400000000000002,8 0,10 -10,0 0,3.9999999999999996 10,0 0,10 3.9999999999999996,0 0,-10 10,0 0,-3.9999999999999996 -10,0 0,-10 -3.9999999999999996,0 z" style="fill: rgb(34, 36, 42); stroke-linecap: round; stroke-linejoin: round; stroke: rgb(34, 36, 42); stroke-width: 1px;"/></g><rect class="djs-hit djs-hit-all" x="0" y="0" width="40" height="40" style="fill: none; stroke-opacity: 0; stroke: white; stroke-width: 15px;"/><rect x="2" y="2" rx="4" width="36" height="36" class="djs-outline" style="transform-box: fill-box; transform: rotate(45deg); transform-origin: center center; fill: none;"/></g></g><g class="djs-group"><g class="djs-element djs-shape" data-element-id="sid-D048D99D-F549-43B8-8ACB-5AE153B12B0F" style="display: block;" transform="matrix(1 0 0 1 470 175)"><g class="djs-visual"><rect x="0" y="0" width="71" height="80" rx="10" ry="10" style="stroke-linecap: round; stroke-linejoin: round; stroke: rgb(34, 36, 42); stroke-width: 2px; fill: white; fill-opacity: 0.95;"/><text lineHeight="1.2" class="djs-label" style="font-family: Arial, sans-serif; font-size: 12px; font-weight: normal; fill: rgb(34, 36, 42);"><tspan x="18.293163299560547" y="29.200000000000003">Check </tspan><tspan x="16.02845001220703" y="43.6">income </tspan><tspan x="14.487499237060547" y="58">sources</tspan></text></g><rect class="djs-hit djs-hit-all" x="0" y="0" width="71" height="80" style="fill: none; stroke-opacity: 0; stroke: white; stroke-width: 15px;"/><rect x="-5" y="-5" rx="14" width="81" height="90" class="djs-outline" style="fill: none;"/></g></g><g class="djs-group"><g class="djs-element djs-shape" data-element-id="sid-64FC5B46-47E5-4940-A0AF-ECE87483967D" style="display: block;" transform="matrix(1 0 0 1 735 139)"><g class="djs-visual"><polygon points="20,0 40,20 20,40 0,20" style="stroke-linecap: round; stroke-linejoin: round; stroke: rgb(34, 36, 42); stroke-width: 2px; fill: white; fill-opacity: 0.95;"/><path d="m 12.8,12 5.942857142857143,7.771428571428571 -5.942857142857143,7.771428571428571 2.742857142857143,0 4.571428571428571,-5.971382857142857 4.571428571428571,5.971382857142857 2.742857142857143,0 -5.942857142857143,-7.771428571428571 5.942857142857143,-7.771428571428571 -2.742857142857143,0 -4.571428571428571,5.971382857142857 -4.571428571428571,-5.971382857142857 -2.742857142857143,0 z" style="fill: rgb(34, 36, 42); stroke-linecap: round; stroke-linejoin: round; stroke: rgb(34, 36, 42); stroke-width: 1px;"/></g><rect class="djs-hit djs-hit-all" x="0" y="0" width="40" height="40" style="fill: none; stroke-opacity: 0; stroke: white; stroke-width: 15px;"/><rect x="2" y="2" rx="4" width="36" height="36" class="djs-outline" style="transform-box: fill-box; transform: rotate(45deg); transform-origin: center center; fill: none;"/></g></g><g class="djs-group"><g class="djs-element djs-shape" data-element-id="sid-F9CBAF0E-0679-4E1F-ACE1-E98177DDA3D0" style="display: block;" transform="matrix(1 0 0 1 875 139)"><g class="djs-visual"><polygon points="20,0 40,20 20,40 0,20" style="stroke-linecap: round; stroke-linejoin: round; stroke: rgb(34, 36, 42); stroke-width: 2px; fill: white; fill-opacity: 0.95;"/><path d="m 12.8,12 5.942857142857143,7.771428571428571 -5.942857142857143,7.771428571428571 2.742857142857143,0 4.571428571428571,-5.971382857142857 4.571428571428571,5.971382857142857 2.742857142857143,0 -5.942857142857143,-7.771428571428571 5.942857142857143,-7.771428571428571 -2.742857142857143,0 -4.571428571428571,5.971382857142857 -4.571428571428571,-5.971382857142857 -2.742857142857143,0 z" style="fill: rgb(34, 36, 42); stroke-linecap: round; stroke-linejoin: round; stroke: rgb(34, 36, 42); stroke-width: 1px;"/></g><rect class="djs-hit djs-hit-all" x="0" y="0" width="40" height="40" style="fill: none; stroke-opacity: 0; stroke: white; stroke-width: 15px;"/><rect x="2" y="2" rx="4" width="36" height="36" class="djs-outline" style="transform-box: fill-box; transform: rotate(45deg); transform-origin: center center; fill: none;"/></g></g><g class="djs-group"><g class="djs-element djs-shape" data-element-id="sid-5ED0A16C-2732-4B16-A6FD-CBBCBC65BA7A" style="display: block;" transform="matrix(1 0 0 1 135 139)"><g class="djs-visual"><polygon points="20,0 40,20 20,40 0,20" style="stroke-linecap: round; stroke-linejoin: round; stroke: rgb(34, 36, 42); stroke-width: 2px; fill: white; fill-opacity: 0.95;"/><path d="m 12.8,12 5.942857142857143,7.771428571428571 -5.942857142857143,7.771428571428571 2.742857142857143,0 4.571428571428571,-5.971382857142857 4.571428571428571,5.971382857142857 2.742857142857143,0 -5.942857142857143,-7.771428571428571 5.942857142857143,-7.771428571428571 -2.742857142857143,0 -4.571428571428571,5.971382857142857 -4.571428571428571,-5.971382857142857 -2.742857142857143,0 z" style="fill: rgb(34, 36, 42); stroke-linecap: round; stroke-linejoin: round; stroke: rgb(34, 36, 42); stroke-width: 1px;"/></g><rect class="djs-hit djs-hit-all" x="0" y="0" width="40" height="40" style="fill: none; stroke-opacity: 0; stroke: white; stroke-width: 15px;"/><rect x="2" y="2" rx="4" width="36" height="36" class="djs-outline" style="transform-box: fill-box; transform: rotate(45deg); transform-origin: center center; fill: none;"/></g></g><g class="djs-group"><g class="djs-element djs-shape" data-element-id="sid-1632A7EB-56EB-43FB-83E1-E7E61FA0D3FD" style="display: block;" transform="matrix(1 0 0 1 330 139)"><g class="djs-visual"><polygon points="20,0 40,20 20,40 0,20" style="stroke-linecap: round; stroke-linejoin: round; stroke: rgb(34, 36, 42); stroke-width: 2px; fill: white; fill-opacity: 0.95;"/><path d="m 12.8,12 5.942857142857143,7.771428571428571 -5.942857142857143,7.771428571428571 2.742857142857143,0 4.571428571428571,-5.971382857142857 4.571428571428571,5.971382857142857 2.742857142857143,0 -5.942857142857143,-7.771428571428571 5.942857142857143,-7.771428571428571 -2.742857142857143,0 -4.571428571428571,5.971382857142857 -4.571428571428571,-5.971382857142857 -2.742857142857143,0 z" style="fill: rgb(34, 36, 42); stroke-linecap: round; stroke-linejoin: round; stroke: rgb(34, 36, 42); stroke-width: 1px;"/></g><rect class="djs-hit djs-hit-all" x="0" y="0" width="40" height="40" style="fill: none; stroke-opacity: 0; stroke: white; stroke-width: 15px;"/><rect x="2" y="2" rx="4" width="36" height="36" class="djs-outline" style="transform-box: fill-box; transform: rotate(45deg); transform-origin: center center; fill: none;"/></g></g><g class="djs-group"><g class="djs-element djs-connection" data-element-id="sid-6FD4FFD3-5784-4D33-9509-234EAB886930" style="display: block;"><g class="djs-visual"><defs><marker id="marker-3lv13kq6905fjyu21hwdrzzjm" viewBox="0 0 20 20" refX="11" refY="10" markerWidth="10" markerHeight="10" orient="auto"><path d="M 1 5 L 11 10 L 1 15 Z" style="stroke-linecap: round; stroke-linejoin: round; stroke: rgb(34, 36, 42); stroke-width: 1px; fill: rgb(34, 36, 42);"/></marker></defs><path data-corner-radius="5" style="fill: none; stroke-linecap: round; stroke-linejoin: round; stroke: rgb(34, 36, 42); stroke-width: 2px; marker-end: url('#marker-3lv13kq6905fjyu21hwdrzzjm');" d="M430.5,139L430.5,98C430.5,95.5,433,93,435.5,93L470,93"/></g><path d="M430.5,139L430.5,93L470,93" class="djs-hit djs-hit-stroke" style="fill: none; stroke-opacity: 0; stroke: white; stroke-width: 15px;"/><rect x="425.5" y="88" rx="4" width="49.5" height="56" class="djs-outline" style="fill: none;"/></g></g><g class="djs-group"><g class="djs-element djs-connection" data-element-id="sid-FF95F9DA-C10F-455B-B2FC-FBC1C270C0B4" style="display: block;"><g class="djs-visual"><defs><marker id="marker-aby43oyaiu6tskmjfpp1be2rc" viewBox="0 0 20 20" refX="11" refY="10" markerWidth="10" markerHeight="10" orient="auto"><path d="M 1 5 L 11 10 L 1 15 Z" style="stroke-linecap: round; stroke-linejoin: round; stroke: rgb(34, 36, 42); stroke-width: 1px; fill: rgb(34, 36, 42);"/></marker></defs><path data-corner-radius="5" style="fill: none; stroke-linecap: round; stroke-linejoin: round; stroke: rgb(34, 36, 42); stroke-width: 2px; marker-end: url('#marker-aby43oyaiu6tskmjfpp1be2rc');" d="M541,215L560.5,215C563,215,565.5,212.5,565.5,210L565.5,179"/></g><path d="M541,215L565.5,215L565.5,179" class="djs-hit djs-hit-stroke" style="fill: none; stroke-opacity: 0; stroke: white; stroke-width: 15px;"/><rect x="536" y="174" rx="4" width="34.5" height="46" class="djs-outline" style="fill: none;"/></g></g><g class="djs-group"><g class="djs-element djs-connection" data-element-id="sid-10E6C62E-2CBD-476A-976B-B862156F5DEC" style="display: block;"><g class="djs-visual"><defs><marker id="marker-cybb1i6ckj8h6mawd0mevqlzl" viewBox="0 0 20 20" refX="11" refY="10" markerWidth="10" markerHeight="10" orient="auto"><path d="M 1 5 L 11 10 L 1 15 Z" style="stroke-linecap: round; stroke-linejoin: round; stroke: rgb(34, 36, 42); stroke-width: 1px; fill: rgb(34, 36, 42);"/></marker></defs><path data-corner-radius="5" style="fill: none; stroke-linecap: round; stroke-linejoin: round; stroke: rgb(34, 36, 42); stroke-width: 2px; marker-end: url('#marker-cybb1i6ckj8h6mawd0mevqlzl');" d="M541,93L560.5,93C563,93,565.5,95.5,565.5,98L565.5,139"/></g><path d="M541,93L565.5,93L565.5,139" class="djs-hit djs-hit-stroke" style="fill: none; stroke-opacity: 0; stroke: white; stroke-width: 15px;"/><rect x="536" y="88" rx="4" width="34.5" height="56" class="djs-outline" style="fill: none;"/></g></g><g class="djs-group"><g class="djs-element djs-connection" data-element-id="sid-281400BA-53E3-47C9-8437-B699CA182453" style="display: block;"><g class="djs-visual"><defs><marker id="marker-0ymmphta5kzu9k6k0lsa92q6b" viewBox="0 0 20 20" refX="11" refY="10" markerWidth="10" markerHeight="10" orient="auto"><path d="M 1 5 L 11 10 L 1 15 Z" style="stroke-linecap: round; stroke-linejoin: round; stroke: rgb(34, 36, 42); stroke-width: 1px; fill: rgb(34, 36, 42);"/></marker></defs><path data-corner-radius="5" style="fill: none; stroke-linecap: round; stroke-linejoin: round; stroke: rgb(34, 36, 42); stroke-width: 2px; marker-end: url('#marker-0ymmphta5kzu9k6k0lsa92q6b');" d="M585,159.39948453608247L620,159.21907216494844"/></g><path d="M585,159.39948453608247L620,159.21907216494844" class="djs-hit djs-hit-stroke" style="fill: none; stroke-opacity: 0; stroke: white; stroke-width: 15px;"/><rect x="580" y="154.21907216494844" rx="4" width="45" height="10.180412371134025" class="djs-outline" style="fill: none;"/></g></g><g class="djs-group"><g class="djs-element djs-connection" data-element-id="sid-FA2D48D3-A316-4C2F-90DB-C2390990D727" style="display: block;"><g class="djs-visual"><defs><marker id="marker-f5k0jqu0jdpye6b1p6hfh06ci" viewBox="0 0 20 20" refX="11" refY="10" markerWidth="10" markerHeight="10" orient="auto"><path d="M 1 5 L 11 10 L 1 15 Z" style="stroke-linecap: round; stroke-linejoin: round; stroke: rgb(34, 36, 42); stroke-width: 1px; fill: rgb(34, 36, 42);"/></marker></defs><path data-corner-radius="5" style="fill: none; stroke-linecap: round; stroke-linejoin: round; stroke: rgb(34, 36, 42); stroke-width: 2px; marker-end: url('#marker-f5k0jqu0jdpye6b1p6hfh06ci');" d="M705,159.2284946236559L735,159.38978494623655"/></g><path d="M705,159.2284946236559L735,159.38978494623655" class="djs-hit djs-hit-stroke" style="fill: none; stroke-opacity: 0; stroke: white; stroke-width: 15px;"/><rect x="700" y="154.2284946236559" rx="4" width="40" height="10.16129032258064" class="djs-outline" style="fill: none;"/></g></g><g class="djs-group"><g class="djs-element djs-connection" data-element-id="sid-E27B9A7A-4414-4BFC-83F5-4BC438B77E37" style="display: block;"><g class="djs-visual"><defs><marker id="marker-4ydtp3dfav4oewvs0nrspry6v" viewBox="0 0 20 20" refX="11" refY="10" markerWidth="10" markerHeight="10" orient="auto"><path d="M 1 5 L 11 10 L 1 15 Z" style="stroke-linecap: round; stroke-linejoin: round; stroke: rgb(34, 36, 42); stroke-width: 1px; fill: rgb(34, 36, 42);"/></marker></defs><path data-corner-radius="5" style="fill: none; stroke-linecap: round; stroke-linejoin: round; stroke: rgb(34, 36, 42); stroke-width: 2px; marker-end: url('#marker-4ydtp3dfav4oewvs0nrspry6v');" d="M866,95L890.5,95C893,95,895.5,97.5,895.5,100L895.5,139"/></g><path d="M866,95L895.5,95L895.5,139" class="djs-hit djs-hit-stroke" style="fill: none; stroke-opacity: 0; stroke: white; stroke-width: 15px;"/><rect x="861" y="90" rx="4" width="39.5" height="54" class="djs-outline" style="fill: none;"/></g></g><g class="djs-group"><g class="djs-element djs-connection" data-element-id="sid-287B8ED1-E9CD-44BD-92E8-C9AD7E940100" style="display: block;"><g class="djs-visual"><defs><marker id="marker-00qz01n6vtr9i487yubr66vrv" viewBox="0 0 20 20" refX="11" refY="10" markerWidth="10" markerHeight="10" orient="auto"><path d="M 1 5 L 11 10 L 1 15 Z" style="stroke-linecap: round; stroke-linejoin: round; stroke: rgb(34, 36, 42); stroke-width: 1px; fill: rgb(34, 36, 42);"/></marker></defs><path data-corner-radius="5" style="fill: none; stroke-linecap: round; stroke-linejoin: round; stroke: rgb(34, 36, 42); stroke-width: 2px; marker-end: url('#marker-00qz01n6vtr9i487yubr66vrv');" d="M915,159.35766423357666L950,159.1021897810219"/></g><path d="M915,159.35766423357666L950,159.1021897810219" class="djs-hit djs-hit-stroke" style="fill: none; stroke-opacity: 0; stroke: white; stroke-width: 15px;"/><rect x="910" y="154.1021897810219" rx="4" width="45" height="10.25547445255475" class="djs-outline" style="fill: none;"/></g></g><g class="djs-group"><g class="djs-element djs-connection" data-element-id="sid-28320589-C367-4731-965E-4E750AE21A1B" style="display: block;"><g class="djs-visual"><defs><marker id="marker-brcm45mwmmb3q5zhzyrs0bayr" viewBox="0 0 20 20" refX="11" refY="10" markerWidth="10" markerHeight="10" orient="auto"><path d="M 1 5 L 11 10 L 1 15 Z" style="stroke-linecap: round; stroke-linejoin: round; stroke: rgb(34, 36, 42); stroke-width: 1px; fill: rgb(34, 36, 42);"/></marker></defs><path data-corner-radius="5" style="fill: none; stroke-linecap: round; stroke-linejoin: round; stroke: rgb(34, 36, 42); stroke-width: 2px; marker-end: url('#marker-brcm45mwmmb3q5zhzyrs0bayr');" d="M105,159L135,159"/></g><path d="M105,159L135,159" class="djs-hit djs-hit-stroke" style="fill: none; stroke-opacity: 0; stroke: white; stroke-width: 15px;"/><rect x="100" y="154" rx="4" width="40" height="10" class="djs-outline" style="fill: none;"/></g></g><g class="djs-group"><g class="djs-element djs-connection" data-element-id="sid-82D107F3-58FD-4B69-806C-EE0D418677C9" style="display: block;"><g class="djs-visual"><defs><marker id="marker-0fvkxalz2n1fy2zgamidg0627" viewBox="0 0 20 20" refX="11" refY="10" markerWidth="10" markerHeight="10" orient="auto"><path d="M 1 5 L 11 10 L 1 15 Z" style="stroke-linecap: round; stroke-linejoin: round; stroke: rgb(34, 36, 42); stroke-width: 1px; fill: rgb(34, 36, 42);"/></marker></defs><path data-corner-radius="5" style="fill: none; stroke-linecap: round; stroke-linejoin: round; stroke: rgb(34, 36, 42); stroke-width: 2px; marker-end: url('#marker-0fvkxalz2n1fy2zgamidg0627');" d="M303,160L330,160"/></g><path d="M303,160L330,160" class="djs-hit djs-hit-stroke" style="fill: none; stroke-opacity: 0; stroke: white; stroke-width: 15px;"/><rect x="298" y="155" rx="4" width="37" height="10" class="djs-outline" style="fill: none;"/></g></g><g class="djs-group"><g class="djs-element djs-connection" data-element-id="sid-9E95A790-241E-4629-8D67-E9A2CE55E3DC" style="display: block;"><g class="djs-visual"><defs><marker id="marker-6s2wp9lk7wq7tazlxy7cubho2" viewBox="0 0 20 20" refX="11" refY="10" markerWidth="10" markerHeight="10" orient="auto"><path d="M 1 5 L 11 10 L 1 15 Z" style="stroke-linecap: round; stroke-linejoin: round; stroke: rgb(34, 36, 42); stroke-width: 1px; fill: rgb(34, 36, 42);"/></marker></defs><path data-corner-radius="5" style="fill: none; stroke-linecap: round; stroke-linejoin: round; stroke: rgb(34, 36, 42); stroke-width: 2px; marker-end: url('#marker-6s2wp9lk7wq7tazlxy7cubho2');" d="M430.5,179L430.5,210C430.5,212.5,433,215,435.5,215L470,215"/></g><path d="M430.5,179L430.5,215L470,215" class="djs-hit djs-hit-stroke" style="fill: none; stroke-opacity: 0; stroke: white; stroke-width: 15px;"/><rect x="425.5" y="174" rx="4" width="49.5" height="46" class="djs-outline" style="fill: none;"/></g></g><g class="djs-group"><g class="djs-element djs-connection" data-element-id="sid-58A4F70B-5279-4DBC-AEE2-8D7D2596DE63" style="display: block;"><g class="djs-visual"><defs><marker id="marker-ehyvi055rbdk50xjmhoxpqj6q" viewBox="0 0 20 20" refX="11" refY="10" markerWidth="10" markerHeight="10" orient="auto"><path d="M 1 5 L 11 10 L 1 15 Z" style="stroke-linecap: round; stroke-linejoin: round; stroke: rgb(34, 36, 42); stroke-width: 1px; fill: rgb(34, 36, 42);"/></marker></defs><path data-corner-radius="5" style="fill: none; stroke-linecap: round; stroke-linejoin: round; stroke: rgb(34, 36, 42); stroke-width: 2px; marker-end: url('#marker-ehyvi055rbdk50xjmhoxpqj6q');" d="M866,215L890.5,215C893,215,895.5,212.5,895.5,210L895.5,179"/></g><path d="M866,215L895.5,215L895.5,179" class="djs-hit djs-hit-stroke" style="fill: none; stroke-opacity: 0; stroke: white; stroke-width: 15px;"/><rect x="861" y="174" rx="4" width="39.5" height="46" class="djs-outline" style="fill: none;"/></g></g><g class="djs-group"><g class="djs-element djs-connection" data-element-id="sid-D1CEDCAD-D123-4D26-B2E5-E178CD2898FB" style="display: block;"><g class="djs-visual"><defs><marker id="marker-a1lusiexxw7fww9os76mia9iz" viewBox="0 0 20 20" refX="11" refY="10" markerWidth="10" markerHeight="10" orient="auto"><path d="M 1 5 L 11 10 L 1 15 Z" style="stroke-linecap: round; stroke-linejoin: round; stroke: rgb(34, 36, 42); stroke-width: 1px; fill: rgb(34, 36, 42);"/></marker></defs><path data-corner-radius="5" style="fill: none; stroke-linecap: round; stroke-linejoin: round; stroke: rgb(34, 36, 42); stroke-width: 2px; marker-end: url('#marker-a1lusiexxw7fww9os76mia9iz');" d="M175,159.5L206,159.5"/></g><path d="M175,159.5L206,159.5" class="djs-hit djs-hit-stroke" style="fill: none; stroke-opacity: 0; stroke: white; stroke-width: 15px;"/><rect x="170" y="154.5" rx="4" width="41" height="10" class="djs-outline" style="fill: none;"/></g></g><g class="djs-group"><g class="djs-element djs-connection" data-element-id="sid-B620B808-3AA5-4E8B-9AA8-252BF7DF31AF" style="display: block;"><g class="djs-visual"><defs><marker id="marker-4lp0wt147sqdl7mywsjs5m79f" viewBox="0 0 20 20" refX="11" refY="10" markerWidth="10" markerHeight="10" orient="auto"><path d="M 1 5 L 11 10 L 1 15 Z" style="stroke-linecap: round; stroke-linejoin: round; stroke: rgb(34, 36, 42); stroke-width: 1px; fill: rgb(34, 36, 42);"/></marker></defs><path data-corner-radius="5" style="fill: none; stroke-linecap: round; stroke-linejoin: round; stroke: rgb(34, 36, 42); stroke-width: 2px; marker-end: url('#marker-4lp0wt147sqdl7mywsjs5m79f');" d="M350.5,139L350.5,103C350.5,100.5,348,98,345.5,98L160.5,98C158,98,155.5,100.5,155.5,103L155.5,139"/></g><path d="M350.5,139L350.5,98L155.5,98L155.5,139" class="djs-hit djs-hit-stroke" style="fill: none; stroke-opacity: 0; stroke: white; stroke-width: 15px;"/><rect x="150.5" y="93" rx="4" width="205" height="51" class="djs-outline" style="fill: none;"/></g></g><g class="djs-group"><g class="djs-element djs-connection" data-element-id="sid-789335C6-205C-4A03-9AD6-9655893C1FFB" style="display: block;"><g class="djs-visual"><defs><marker id="marker-b9j87sz6iia7p8ckjk6glwiyo" viewBox="0 0 20 20" refX="11" refY="10" markerWidth="10" markerHeight="10" orient="auto"><path d="M 1 5 L 11 10 L 1 15 Z" style="stroke-linecap: round; stroke-linejoin: round; stroke: rgb(34, 36, 42); stroke-width: 1px; fill: rgb(34, 36, 42);"/></marker></defs><path data-corner-radius="5" style="fill: none; stroke-linecap: round; stroke-linejoin: round; stroke: rgb(34, 36, 42); stroke-width: 2px; marker-end: url('#marker-b9j87sz6iia7p8ckjk6glwiyo');" d="M756,139L756,100C756,97.5,758.5,95,761,95L795,95"/></g><path d="M756,139L756,95L795,95" class="djs-hit djs-hit-stroke" style="fill: none; stroke-opacity: 0; stroke: white; stroke-width: 15px;"/><rect x="751" y="90" rx="4" width="49" height="54" class="djs-outline" style="fill: none;"/></g></g><g class="djs-group"><g class="djs-element djs-connection" data-element-id="sid-C9301B20-0FA1-4C83-82D4-345A1CD74445" style="display: block;"><g class="djs-visual"><defs><marker id="marker-1v0a2juvrnsveoxelsmvfajo0" viewBox="0 0 20 20" refX="11" refY="10" markerWidth="10" markerHeight="10" orient="auto"><path d="M 1 5 L 11 10 L 1 15 Z" style="stroke-linecap: round; stroke-linejoin: round; stroke: rgb(34, 36, 42); stroke-width: 1px; fill: rgb(34, 36, 42);"/></marker><marker id="marker-8ucaoft6oxtza2qrwztqw3io7" viewBox="0 0 20 20" refX="0" refY="10" markerWidth="10" markerHeight="10" orient="auto"><path d="M 6 4 L 10 16" style="stroke-linecap: round; stroke-linejoin: round; stroke: rgb(34, 36, 42); stroke-width: 2px; fill: none;"/></marker></defs><path data-corner-radius="5" style="fill: none; stroke-linecap: round; stroke-linejoin: round; stroke: rgb(34, 36, 42); stroke-width: 2px; marker-end: url('#marker-1v0a2juvrnsveoxelsmvfajo0'); marker-start: url('#marker-8ucaoft6oxtza2qrwztqw3io7');" d="M370,160L410,160"/></g><path d="M370,160L410,160" class="djs-hit djs-hit-stroke" style="fill: none; stroke-opacity: 0; stroke: white; stroke-width: 15px;"/><rect x="365" y="155" rx="4" width="50" height="10" class="djs-outline" style="fill: none;"/></g></g><g class="djs-group"><g class="djs-element djs-shape" data-element-id="sid-C9301B20-0FA1-4C83-82D4-345A1CD74445_label" style="display: block;" transform="matrix(1 0 0 1 381 138)"><g class="djs-visual"><text lineHeight="1.2" class="djs-label" style="font-family: Arial, sans-serif; font-size: 11px; font-weight: normal; fill: rgb(34, 36, 42);"><tspan x="0" y="9.899999999999999">80%</tspan></text></g><rect class="djs-hit djs-hit-all" x="0" y="0" width="23" height="14" style="fill: none; stroke-opacity: 0; stroke: white; stroke-width: 15px;"/><rect x="-5" y="-5" rx="4" width="33" height="24" class="djs-outline" style="fill: none;"/></g></g><g class="djs-group"><g class="djs-element djs-connection" data-element-id="sid-8AE82A7B-75EE-401B-8ABE-279FB05A3946" style="display: block;"><g class="djs-visual"><defs><marker id="marker-31tngcmbugopaqfmualz4750u" viewBox="0 0 20 20" refX="11" refY="10" markerWidth="10" markerHeight="10" orient="auto"><path d="M 1 5 L 11 10 L 1 15 Z" style="stroke-linecap: round; stroke-linejoin: round; stroke: rgb(34, 36, 42); stroke-width: 1px; fill: rgb(34, 36, 42);"/></marker></defs><path data-corner-radius="5" style="fill: none; stroke-linecap: round; stroke-linejoin: round; stroke: rgb(34, 36, 42); stroke-width: 2px; marker-end: url('#marker-31tngcmbugopaqfmualz4750u');" d="M755.5,179L755.5,210C755.5,212.5,758,215,760.5,215L795,215"/></g><path d="M755.5,179L755.5,215L795,215" class="djs-hit djs-hit-stroke" style="fill: none; stroke-opacity: 0; stroke: white; stroke-width: 15px;"/><rect x="750.5" y="174" rx="4" width="49.5" height="46" class="djs-outline" style="fill: none;"/></g></g><g class="djs-group"><g class="djs-element djs-shape" data-element-id="sid-B620B808-3AA5-4E8B-9AA8-252BF7DF31AF_label" style="display: block;" transform="matrix(1 0 0 1 212 66)"><g class="djs-visual"><text lineHeight="1.2" class="djs-label" style="font-family: Arial, sans-serif; font-size: 11px; font-weight: normal; fill: rgb(34, 36, 42);"><tspan x="16.500947952270508" y="9.899999999999999">application </tspan><tspan x="0" y="23.099999999999998">incomplete (20%)</tspan></text></g><rect class="djs-hit djs-hit-all" x="0" y="0" width="86" height="27" style="fill: none; stroke-opacity: 0; stroke: white; stroke-width: 15px;"/><rect x="-5" y="-5" rx="4" width="96" height="37" class="djs-outline" style="fill: none;"/></g></g><g class="djs-group"><g class="djs-element djs-shape" data-element-id="sid-789335C6-205C-4A03-9AD6-9655893C1FFB_label" style="display: block;" transform="matrix(1 0 0 1 706 63)"><g class="djs-visual"><text lineHeight="1.2" class="djs-label" style="font-family: Arial, sans-serif; font-size: 11px; font-weight: normal; fill: rgb(34, 36, 42);"><tspan x="0" y="9.899999999999999">granted (60%)</tspan></text></g><rect class="djs-hit djs-hit-all" x="0" y="0" width="70" height="14" style="fill: none; stroke-opacity: 0; stroke: white; stroke-width: 15px;"/><rect x="-5" y="-5" rx="4" width="80" height="24" class="djs-outline" style="fill: none;"/></g></g><g class="djs-group"><g class="djs-element djs-shape selected" data-element-id="sid-8AE82A7B-75EE-401B-8ABE-279FB05A3946_label" style="display: block;" transform="matrix(1 0 0 1 722 233)"><g class="djs-visual"><text lineHeight="1.2" class="djs-label" style="font-family: Arial, sans-serif; font-size: 11px; font-weight: normal; fill: rgb(34, 36, 42);"><tspan x="0" y="9.899999999999999">denied (40%)</tspan></text></g><rect class="djs-hit djs-hit-all" x="0" y="0" width="66" height="14" style="fill: none; stroke-opacity: 0; stroke: white; stroke-width: 15px;"/><rect x="-5" y="-5" rx="4" width="76" height="24" class="djs-outline" style="fill: none;"/></g></g></svg>