<?xml version="1.0" encoding="utf-8"?>
<!-- created with bpmn-js / http://bpmn.io -->
<!DOCTYPE svg PUBLIC "-//W3C//DTD SVG 1.1//EN" "http://www.w3.org/Graphics/SVG/1.1/DTD/svg11.dtd">
<svg xmlns="http://www.w3.org/2000/svg" xmlns:xlink="http://www.w3.org/1999/xlink" width="1010" height="360.0000305175781" viewBox="122.00000762939453 40.000003814697266 1010 360.0000305175781" version="1.1"><defs><pattern id="djs-grid-pattern-823758" width="10" height="10" patternUnits="userSpaceOnUse"><circle cx="0.5" cy="0.5" r="0.5" style="fill: rgb(204, 204, 204);"/></pattern></defs><g class="djs-group"><g class="djs-element djs-shape" data-element-id="sid-33B141F1-CEC1-42C7-A248-CB2ECD0556B1" style="display: block;" transform="matrix(1 0 0 1 200 140)"><g class="djs-visual"><rect x="0" y="0" width="100" height="80" rx="10" ry="10" style="stroke-linecap: round; stroke-linejoin: round; stroke: rgb(34, 36, 42); stroke-width: 2px; fill: white; fill-opacity: 0.95;"/><text lineHeight="1.2" class="djs-label" style="font-family: Arial, sans-serif; font-size: 12px; font-weight: normal; fill: rgb(34, 36, 42);"><tspan x="32.79316329956055" y="29.200000000000003">Check</tspan><tspan x="35.79609298706055" y="43.6">stock </tspan><tspan x="22.120311737060547" y="58">availability</tspan></text></g><rect class="djs-hit djs-hit-all" x="0" y="0" width="100" height="80" style="fill: none; stroke-opacity: 0; stroke: white; stroke-width: 15px;"/><rect x="-5" y="-5" rx="14" width="110" height="90" class="djs-outline" style="fill: none;"/></g></g><g class="djs-group"><g class="djs-element djs-shape" data-element-id="sid-C4CA02C0-926A-4471-BA68-C8D141DAC8CB" style="display: block;" transform="matrix(1 0 0 1 325 160)"><g class="djs-visual"><polygon points="20,0 40,20 20,40 0,20" style="stroke-linecap: round; stroke-linejoin: round; stroke: rgb(34, 36, 42); stroke-width: 2px; fill: white; fill-opacity: 0.95;"/><path d="m 12.8,12 5.942857142857143,7.771428571428571 -5.942857142857143,7.771428571428571 2.742857142857143,0 4.571428571428571,-5.971382857142857 4.571428571428571,5.971382857142857 2.742857142857143,0 -5.942857142857143,-7.771428571428571 5.942857142857143,-7.771428571428571 -2.742857142857143,0 -4.571428571428571,5.971382857142857 -4.571428571428571,-5.971382857142857 -2.742857142857143,0 z" style="fill: rgb(34, 36, 42); stroke-linecap: round; stroke-linejoin: round; stroke: rgb(34, 36, 42); stroke-width: 1px;"/></g><rect class="djs-hit djs-hit-all" x="0" y="0" width="40" height="40" style="fill: none; stroke-opacity: 0; stroke: white; stroke-width: 15px;"/><rect x="2" y="2" rx="4" width="36" height="36" class="djs-outline" style="transform-box: fill-box; transform: rotate(45deg); transform-origin: center center; fill: none;"/></g></g><g class="djs-group"><g class="djs-element djs-shape" data-element-id="sid-47FA637E-6F0D-4D63-A0F0-F25F744EE180" style="display: block;" transform="matrix(1 0 0 1 497 240)"><g class="djs-visual"><rect x="0" y="0" width="100" height="80" rx="10" ry="10" style="stroke-linecap: round; stroke-linejoin: round; stroke: rgb(34, 36, 42); stroke-width: 2px; fill: white; fill-opacity: 0.95;"/><text lineHeight="1.2" class="djs-label" style="font-family: Arial, sans-serif; font-size: 12px; font-weight: normal; fill: rgb(34, 36, 42);"><tspan x="28.995832443237305" y="36.4">Confirm</tspan><tspan x="35.59121036529541" y="50.8">order</tspan></text></g><rect class="djs-hit djs-hit-all" x="0" y="0" width="100" height="80" style="fill: none; stroke-opacity: 0; stroke: white; stroke-width: 15px;"/><rect x="-5" y="-5" rx="14" width="110" height="90" class="djs-outline" style="fill: none;"/></g></g><g class="djs-group"><g class="djs-element djs-shape" data-element-id="sid-B8AB3D4D-A68F-4E7B-A7E5-C58AF1635B0B" style="display: block;" transform="matrix(1 0 0 1 370 45)"><g class="djs-visual"><rect x="0" y="0" width="100" height="80" rx="10" ry="10" style="stroke-linecap: round; stroke-linejoin: round; stroke: rgb(34, 36, 42); stroke-width: 2px; fill: white; fill-opacity: 0.95;"/><text lineHeight="1.2" class="djs-label" style="font-family: Arial, sans-serif; font-size: 12px; font-weight: normal; fill: rgb(34, 36, 42);"><tspan x="32.79348945617676" y="36.4">Reject</tspan><tspan x="35.59121036529541" y="50.8">order</tspan></text></g><rect class="djs-hit djs-hit-all" x="0" y="0" width="100" height="80" style="fill: none; stroke-opacity: 0; stroke: white; stroke-width: 15px;"/><rect x="-5" y="-5" rx="14" width="110" height="90" class="djs-outline" style="fill: none;"/></g></g><g class="djs-group"><g class="djs-element djs-shape" data-element-id="sid-FF316AF5-0A62-40CA-A26C-AD1162EE3CB3" style="display: block;" transform="matrix(1 0 0 1 625 260)"><g class="djs-visual"><polygon points="20,0 40,20 20,40 0,20" style="stroke-linecap: round; stroke-linejoin: round; stroke: rgb(34, 36, 42); stroke-width: 2px; fill: white; fill-opacity: 0.95;"/><path d="m 18.400000000000002,8 0,10 -10,0 0,3.9999999999999996 10,0 0,10 3.9999999999999996,0 0,-10 10,0 0,-3.9999999999999996 -10,0 0,-10 -3.9999999999999996,0 z" style="fill: rgb(34, 36, 42); stroke-linecap: round; stroke-linejoin: round; stroke: rgb(34, 36, 42); stroke-width: 1px;"/></g><rect class="djs-hit djs-hit-all" x="0" y="0" width="40" height="40" style="fill: none; stroke-opacity: 0; stroke: white; stroke-width: 15px;"/><rect x="2" y="2" rx="4" width="36" height="36" class="djs-outline" style="transform-box: fill-box; transform: rotate(45deg); transform-origin: center center; fill: none;"/></g></g><g class="djs-group"><g class="djs-element djs-shape" data-element-id="sid-D160F2A6-FC14-455C-98AA-61B510ED4581" style="display: block;" transform="matrix(1 0 0 1 810 165)"><g class="djs-visual"><rect x="0" y="0" width="100" height="80" rx="10" ry="10" style="stroke-linecap: round; stroke-linejoin: round; stroke: rgb(34, 36, 42); stroke-width: 2px; fill: white; fill-opacity: 0.95;"/><text lineHeight="1.2" class="djs-label" style="font-family: Arial, sans-serif; font-size: 12px; font-weight: normal; fill: rgb(34, 36, 42);"><tspan x="37.86145782470703" y="36.4">Ship</tspan><tspan x="29.787630081176758" y="50.8">product</tspan></text></g><rect class="djs-hit djs-hit-all" x="0" y="0" width="100" height="80" style="fill: none; stroke-opacity: 0; stroke: white; stroke-width: 15px;"/><rect x="-5" y="-5" rx="14" width="110" height="90" class="djs-outline" style="fill: none;"/></g></g><g class="djs-group"><g class="djs-element djs-shape" data-element-id="sid-14FE510A-3DA8-47C1-B4CF-E75C2F6C61EC" style="display: block;" transform="matrix(1 0 0 1 675 315)"><g class="djs-visual"><rect x="0" y="0" width="100" height="80" rx="10" ry="10" style="stroke-linecap: round; stroke-linejoin: round; stroke: rgb(34, 36, 42); stroke-width: 2px; fill: white; fill-opacity: 0.95;"/><text lineHeight="1.2" class="djs-label" style="font-family: Arial, sans-serif; font-size: 12px; font-weight: normal; fill: rgb(34, 36, 42);"><tspan x="37.80032444000244" y="36.4">Emit</tspan><tspan x="31.19348907470703" y="50.8"> invoice</tspan></text></g><rect class="djs-hit djs-hit-all" x="0" y="0" width="100" height="80" style="fill: none; stroke-opacity: 0; stroke: white; stroke-width: 15px;"/><rect x="-5" y="-5" rx="14" width="110" height="90" class="djs-outline" style="fill: none;"/></g></g><g class="djs-group"><g class="djs-element djs-shape" data-element-id="sid-14AC94B2-D01A-4C81-91B7-7737CF394AD5" style="display: block;" transform="matrix(1 0 0 1 906 260)"><g class="djs-visual"><polygon points="20,0 40,20 20,40 0,20" style="stroke-linecap: round; stroke-linejoin: round; stroke: rgb(34, 36, 42); stroke-width: 2px; fill: white; fill-opacity: 0.95;"/><path d="m 18.400000000000002,8 0,10 -10,0 0,3.9999999999999996 10,0 0,10 3.9999999999999996,0 0,-10 10,0 0,-3.9999999999999996 -10,0 0,-10 -3.9999999999999996,0 z" style="fill: rgb(34, 36, 42); stroke-linecap: round; stroke-linejoin: round; stroke: rgb(34, 36, 42); stroke-width: 1px;"/></g><rect class="djs-hit djs-hit-all" x="0" y="0" width="40" height="40" style="fill: none; stroke-opacity: 0; stroke: white; stroke-width: 15px;"/><rect x="2" y="2" rx="4" width="36" height="36" class="djs-outline" style="transform-box: fill-box; transform: rotate(45deg); transform-origin: center center; fill: none;"/></g></g><g class="djs-group"><g class="djs-element djs-shape" data-element-id="sid-877B89BB-5B29-4C09-8DE5-3070FD5861EA" style="display: block;" transform="matrix(1 0 0 1 971 240)"><g class="djs-visual"><rect x="0" y="0" width="100" height="80" rx="10" ry="10" style="stroke-linecap: round; stroke-linejoin: round; stroke: rgb(34, 36, 42); stroke-width: 2px; fill: white; fill-opacity: 0.95;"/><text lineHeight="1.2" class="djs-label" style="font-family: Arial, sans-serif; font-size: 12px; font-weight: normal; fill: rgb(34, 36, 42);"><tspan x="30.13007789850235" y="36.4">Archive</tspan><tspan x="35.59121036529541" y="50.8">order</tspan></text></g><rect class="djs-hit djs-hit-all" x="0" y="0" width="100" height="80" style="fill: none; stroke-opacity: 0; stroke: white; stroke-width: 15px;"/><rect x="-5" y="-5" rx="14" width="110" height="90" class="djs-outline" style="fill: none;"/></g></g><g class="djs-group"><g class="djs-element djs-shape" data-element-id="sid-A474F856-23F8-402D-B742-7ED7EF28BCF8" style="display: block;" transform="matrix(1 0 0 1 135 165)"><g class="djs-visual"><circle cx="15" cy="15" r="15" style="stroke-linecap: round; stroke-linejoin: round; stroke: rgb(34, 36, 42); stroke-width: 2px; fill: white; fill-opacity: 0.95;"/></g><rect class="djs-hit djs-hit-all" x="0" y="0" width="30" height="30" style="fill: none; stroke-opacity: 0; stroke: white; stroke-width: 15px;"/><circle cx="15" cy="15" r="20" class="djs-outline" style="fill: none;"/></g></g><g class="djs-group"><g class="djs-element djs-shape" data-element-id="sid-A474F856-23F8-402D-B742-7ED7EF28BCF8_label" style="display: block;" transform="matrix(1 0 0 1 127 197)"><g class="djs-visual"><text lineHeight="1.2" class="djs-label" style="font-family: Arial, sans-serif; font-size: 11px; font-weight: normal; fill: rgb(34, 36, 42);"><tspan x="0" y="9.899999999999999">Purchase</tspan><tspan x="10.232897758483887" y="23.099999999999998"> order</tspan><tspan x="2.5841064453125" y="36.3">received</tspan></text></g><rect class="djs-hit djs-hit-all" x="0" y="0" width="47" height="40" style="fill: none; stroke-opacity: 0; stroke: white; stroke-width: 15px;"/><rect x="-5" y="-5" rx="4" width="57" height="50" class="djs-outline" style="fill: none;"/></g></g><g class="djs-group"><g class="djs-element djs-shape" data-element-id="sid-94B678E0-BB5D-467A-BC28-DFFAD6AB16C5" style="display: block;" transform="matrix(1 0 0 1 1096 266)"><g class="djs-visual"><circle cx="14" cy="14" r="14" style="stroke-linecap: round; stroke-linejoin: round; stroke: rgb(34, 36, 42); stroke-width: 4px; fill: white; fill-opacity: 0.95;"/></g><rect class="djs-hit djs-hit-all" x="0" y="0" width="28" height="28" style="fill: none; stroke-opacity: 0; stroke: white; stroke-width: 15px;"/><circle cx="14" cy="14" r="20" class="djs-outline" style="fill: none;"/></g></g><g class="djs-group"><g class="djs-element djs-shape" data-element-id="sid-94B678E0-BB5D-467A-BC28-DFFAD6AB16C5_label" style="display: block;" transform="matrix(1 0 0 1 1093 296)"><g class="djs-visual"><text lineHeight="1.2" class="djs-label" style="font-family: Arial, sans-serif; font-size: 11px; font-weight: normal; fill: rgb(34, 36, 42);"><tspan x="2.4923471808433533" y="9.899999999999999">Order</tspan><tspan x="0" y="23.099999999999998"> fulfilled</tspan></text></g><rect class="djs-hit djs-hit-all" x="0" y="0" width="34" height="27" style="fill: none; stroke-opacity: 0; stroke: white; stroke-width: 15px;"/><rect x="-5" y="-5" rx="4" width="44" height="37" class="djs-outline" style="fill: none;"/></g></g><g class="djs-group"><g class="djs-element djs-shape" data-element-id="sid-F5FDC0FF-768D-4FC6-A802-A6970074AE85" style="display: block;" transform="matrix(1 0 0 1 675 165)"><g class="djs-visual"><rect x="0" y="0" width="100" height="80" rx="10" ry="10" style="stroke-linecap: round; stroke-linejoin: round; stroke: rgb(34, 36, 42); stroke-width: 2px; fill: white; fill-opacity: 0.95;"/><text lineHeight="1.2" class="djs-label" style="font-family: Arial, sans-serif; font-size: 12px; font-weight: normal; fill: rgb(34, 36, 42);"><tspan x="40.12942695617676" y="29.200000000000003">Get</tspan><tspan x="25.454620361328125" y="43.6">shipment</tspan><tspan x="28.654165267944336" y="58">address</tspan></text></g><rect class="djs-hit djs-hit-all" x="0" y="0" width="100" height="80" style="fill: none; stroke-opacity: 0; stroke: white; stroke-width: 15px;"/><rect x="-5" y="-5" rx="14" width="110" height="90" class="djs-outline" style="fill: none;"/></g></g><g class="djs-group"><g class="djs-element djs-shape" data-element-id="sid-137D7903-112E-444A-89BB-B129EEC91152" style="display: block;" transform="matrix(1 0 0 1 505 71)"><g class="djs-visual"><circle cx="14" cy="14" r="14" style="stroke-linecap: round; stroke-linejoin: round; stroke: rgb(34, 36, 42); stroke-width: 4px; fill: white; fill-opacity: 0.95;"/></g><rect class="djs-hit djs-hit-all" x="0" y="0" width="28" height="28" style="fill: none; stroke-opacity: 0; stroke: white; stroke-width: 15px;"/><circle cx="14" cy="14" r="20" class="djs-outline" style="fill: none;"/></g></g><g class="djs-group"><g class="djs-element djs-shape" data-element-id="sid-137D7903-112E-444A-89BB-B129EEC91152_label" style="display: block;" transform="matrix(1 0 0 1 499 101)"><g class="djs-visual"><text lineHeight="1.2" class="djs-label" style="font-family: Arial, sans-serif; font-size: 11px; font-weight: normal; fill: rgb(34, 36, 42);"><tspan x="5.20484733581543" y="9.899999999999999">Order </tspan><tspan x="0" y="23.099999999999998">rejected</tspan></text></g><rect class="djs-hit djs-hit-all" x="0" y="0" width="40" height="27" style="fill: none; stroke-opacity: 0; stroke: white; stroke-width: 15px;"/><rect x="-5" y="-5" rx="4" width="50" height="37" class="djs-outline" style="fill: none;"/></g></g><g class="djs-group"><g class="djs-element djs-shape" data-element-id="sid-8E7065BE-422D-4328-9E29-8D804E5E1F11" style="display: block;" transform="matrix(1 0 0 1 810 315)"><g class="djs-visual"><rect x="0" y="0" width="100" height="80" rx="10" ry="10" style="stroke-linecap: round; stroke-linejoin: round; stroke: rgb(34, 36, 42); stroke-width: 2px; fill: white; fill-opacity: 0.95;"/><text lineHeight="1.2" class="djs-label" style="font-family: Arial, sans-serif; font-size: 12px; font-weight: normal; fill: rgb(34, 36, 42);"><tspan x="28.19348907470703" y="36.4">Receive </tspan><tspan x="26.787628173828125" y="50.8">payment</tspan></text></g><rect class="djs-hit djs-hit-all" x="0" y="0" width="100" height="80" style="fill: none; stroke-opacity: 0; stroke: white; stroke-width: 15px;"/><rect x="-5" y="-5" rx="14" width="110" height="90" class="djs-outline" style="fill: none;"/></g></g><g class="djs-group"><g class="djs-element djs-shape" data-element-id="sid-148BC4EB-2DA3-43CE-9037-828A07F05A76" style="display: block;" transform="matrix(1 0 0 1 370 240)"><g class="djs-visual"><rect x="0" y="0" width="100" height="80" rx="10" ry="10" style="stroke-linecap: round; stroke-linejoin: round; stroke: rgb(34, 36, 42); stroke-width: 2px; fill: white; fill-opacity: 0.95;"/><text lineHeight="1.2" class="djs-label" style="font-family: Arial, sans-serif; font-size: 12px; font-weight: normal; fill: rgb(34, 36, 42);"><tspan x="27.52845001220703" y="22">Retrieve</tspan><tspan x="29.787630081176758" y="36.4">product</tspan><tspan x="38.266665995121" y="50.8">from</tspan><tspan x="20.784372866153717" y="65.19999999999999"> warehouse</tspan></text></g><rect class="djs-hit djs-hit-all" x="0" y="0" width="100" height="80" style="fill: none; stroke-opacity: 0; stroke: white; stroke-width: 15px;"/><rect x="-5" y="-5" rx="14" width="110" height="90" class="djs-outline" style="fill: none;"/></g></g><g class="djs-group"><g class="djs-element djs-connection" data-element-id="sid-A6B6E467-286E-4557-8014-560C6F3CBB9B" style="display: block;"><g class="djs-visual"><defs><marker id="marker-2pq1dncpf7zfq1oynwnz4nvn0" viewBox="0 0 20 20" refX="11" refY="10" markerWidth="10" markerHeight="10" orient="auto"><path d="M 1 5 L 11 10 L 1 15 Z" style="stroke-linecap: round; stroke-linejoin: round; stroke: rgb(34, 36, 42); stroke-width: 1px; fill: rgb(34, 36, 42);"/></marker></defs><path data-corner-radius="5" style="fill: none; stroke-linecap: round; stroke-linejoin: round; stroke: rgb(34, 36, 42); stroke-width: 2px; marker-end: url('#marker-2pq1dncpf7zfq1oynwnz4nvn0');" d="M165,180L200,180"/></g><path d="M165,180L200,180" class="djs-hit djs-hit-stroke" style="fill: none; stroke-opacity: 0; stroke: white; stroke-width: 15px;"/><rect x="160" y="175" rx="4" width="45" height="10" class="djs-outline" style="fill: none;"/></g></g><g class="djs-group"><g class="djs-element djs-connection" data-element-id="sid-414EACD2-E772-4920-B2C0-006CC471FE20" style="display: block;"><g class="djs-visual"><defs><marker id="marker-6py3j4hfvm21qg5s48v8d186r" viewBox="0 0 20 20" refX="11" refY="10" markerWidth="10" markerHeight="10" orient="auto"><path d="M 1 5 L 11 10 L 1 15 Z" style="stroke-linecap: round; stroke-linejoin: round; stroke: rgb(34, 36, 42); stroke-width: 1px; fill: rgb(34, 36, 42);"/></marker></defs><path data-corner-radius="5" style="fill: none; stroke-linecap: round; stroke-linejoin: round; stroke: rgb(34, 36, 42); stroke-width: 2px; marker-end: url('#marker-6py3j4hfvm21qg5s48v8d186r');" d="M300,180.26178010471205L325,180.39267015706807"/></g><path d="M300,180.26178010471205L325,180.39267015706807" class="djs-hit djs-hit-stroke" style="fill: none; stroke-opacity: 0; stroke: white; stroke-width: 15px;"/><rect x="295" y="175.26178010471205" rx="4" width="35" height="10.130890052356023" class="djs-outline" style="fill: none;"/></g></g><g class="djs-group"><g class="djs-element djs-connection" data-element-id="sid-4F4F55B5-DA71-4ED2-A11E-8F5AFB99F089" style="display: block;"><g class="djs-visual"><defs><marker id="marker-9gf7fspxzsvyw6911le4eenwe" viewBox="0 0 20 20" refX="11" refY="10" markerWidth="10" markerHeight="10" orient="auto"><path d="M 1 5 L 11 10 L 1 15 Z" style="stroke-linecap: round; stroke-linejoin: round; stroke: rgb(34, 36, 42); stroke-width: 1px; fill: rgb(34, 36, 42);"/></marker></defs><path data-corner-radius="5" style="fill: none; stroke-linecap: round; stroke-linejoin: round; stroke: rgb(34, 36, 42); stroke-width: 2px; marker-end: url('#marker-9gf7fspxzsvyw6911le4eenwe');" d="M470,85L505,85"/></g><path d="M470,85L505,85" class="djs-hit djs-hit-stroke" style="fill: none; stroke-opacity: 0; stroke: white; stroke-width: 15px;"/><rect x="465" y="80" rx="4" width="45" height="10" class="djs-outline" style="fill: none;"/></g></g><g class="djs-group"><g class="djs-element djs-connection" data-element-id="sid-88538F27-7E2F-4D92-A3AC-0F8AAE0F739D" style="display: block;"><g class="djs-visual"><defs><marker id="marker-9tihblvsic0z5swkba8g65o80" viewBox="0 0 20 20" refX="11" refY="10" markerWidth="10" markerHeight="10" orient="auto"><path d="M 1 5 L 11 10 L 1 15 Z" style="stroke-linecap: round; stroke-linejoin: round; stroke: rgb(34, 36, 42); stroke-width: 1px; fill: rgb(34, 36, 42);"/></marker></defs><path data-corner-radius="5" style="fill: none; stroke-linecap: round; stroke-linejoin: round; stroke: rgb(34, 36, 42); stroke-width: 2px; marker-end: url('#marker-9tihblvsic0z5swkba8g65o80');" d="M597,280.25380710659897L625,280.3959390862944"/></g><path d="M597,280.25380710659897L625,280.3959390862944" class="djs-hit djs-hit-stroke" style="fill: none; stroke-opacity: 0; stroke: white; stroke-width: 15px;"/><rect x="592" y="275.25380710659897" rx="4" width="38" height="10.14213197969542" class="djs-outline" style="fill: none;"/></g></g><g class="djs-group"><g class="djs-element djs-connection" data-element-id="sid-12B5F644-F91E-4326-88B6-1902B0089030" style="display: block;"><g class="djs-visual"><defs><marker id="marker-8evdhdpztceletr3rj09ogj0p" viewBox="0 0 20 20" refX="11" refY="10" markerWidth="10" markerHeight="10" orient="auto"><path d="M 1 5 L 11 10 L 1 15 Z" style="stroke-linecap: round; stroke-linejoin: round; stroke: rgb(34, 36, 42); stroke-width: 1px; fill: rgb(34, 36, 42);"/></marker></defs><path data-corner-radius="5" style="fill: none; stroke-linecap: round; stroke-linejoin: round; stroke: rgb(34, 36, 42); stroke-width: 2px; marker-end: url('#marker-8evdhdpztceletr3rj09ogj0p');" d="M645.5,300L645.5,350C645.5,352.5,648,355,650.5,355L675,355"/></g><path d="M645.5,300L645.5,355L675,355" class="djs-hit djs-hit-stroke" style="fill: none; stroke-opacity: 0; stroke: white; stroke-width: 15px;"/><rect x="640.5" y="295" rx="4" width="39.5" height="65" class="djs-outline" style="fill: none;"/></g></g><g class="djs-group"><g class="djs-element djs-connection" data-element-id="sid-95187C39-F29F-4D39-99DD-0D2811A5DA1B" style="display: block;"><g class="djs-visual"><defs><marker id="marker-3rc5b5v32zw9okumcz1xavh3n" viewBox="0 0 20 20" refX="11" refY="10" markerWidth="10" markerHeight="10" orient="auto"><path d="M 1 5 L 11 10 L 1 15 Z" style="stroke-linecap: round; stroke-linejoin: round; stroke: rgb(34, 36, 42); stroke-width: 1px; fill: rgb(34, 36, 42);"/></marker></defs><path data-corner-radius="5" style="fill: none; stroke-linecap: round; stroke-linejoin: round; stroke: rgb(34, 36, 42); stroke-width: 2px; marker-end: url('#marker-3rc5b5v32zw9okumcz1xavh3n');" d="M910,205L921.5,205C924,205,926.5,207.5,926.5,210L926.5,260"/></g><path d="M910,205L926.5,205L926.5,260" class="djs-hit djs-hit-stroke" style="fill: none; stroke-opacity: 0; stroke: white; stroke-width: 15px;"/><rect x="905" y="200" rx="4" width="26.5" height="65" class="djs-outline" style="fill: none;"/></g></g><g class="djs-group"><g class="djs-element djs-connection" data-element-id="sid-B49F539B-0121-4C83-BDA1-AB1DB5BEBBCA" style="display: block;"><g class="djs-visual"><defs><marker id="marker-b9kua2y821ddfo6tvplvvr2a2" viewBox="0 0 20 20" refX="11" refY="10" markerWidth="10" markerHeight="10" orient="auto"><path d="M 1 5 L 11 10 L 1 15 Z" style="stroke-linecap: round; stroke-linejoin: round; stroke: rgb(34, 36, 42); stroke-width: 1px; fill: rgb(34, 36, 42);"/></marker></defs><path data-corner-radius="5" style="fill: none; stroke-linecap: round; stroke-linejoin: round; stroke: rgb(34, 36, 42); stroke-width: 2px; marker-end: url('#marker-b9kua2y821ddfo6tvplvvr2a2');" d="M775,355L810,355"/></g><path d="M775,355L810,355" class="djs-hit djs-hit-stroke" style="fill: none; stroke-opacity: 0; stroke: white; stroke-width: 15px;"/><rect x="770" y="350" rx="4" width="45" height="10" class="djs-outline" style="fill: none;"/></g></g><g class="djs-group"><g class="djs-element djs-connection" data-element-id="sid-932D1E50-F851-44C8-A55D-A65355FC17B7" style="display: block;"><g class="djs-visual"><defs><marker id="marker-a7pk604r77vb5v4b2y8ys31wa" viewBox="0 0 20 20" refX="11" refY="10" markerWidth="10" markerHeight="10" orient="auto"><path d="M 1 5 L 11 10 L 1 15 Z" style="stroke-linecap: round; stroke-linejoin: round; stroke: rgb(34, 36, 42); stroke-width: 1px; fill: rgb(34, 36, 42);"/></marker></defs><path data-corner-radius="5" style="fill: none; stroke-linecap: round; stroke-linejoin: round; stroke: rgb(34, 36, 42); stroke-width: 2px; marker-end: url('#marker-a7pk604r77vb5v4b2y8ys31wa');" d="M946,280.3968253968254L971,280.2645502645503"/></g><path d="M946,280.3968253968254L971,280.2645502645503" class="djs-hit djs-hit-stroke" style="fill: none; stroke-opacity: 0; stroke: white; stroke-width: 15px;"/><rect x="941" y="275.2645502645503" rx="4" width="35" height="10.13227513227514" class="djs-outline" style="fill: none;"/></g></g><g class="djs-group"><g class="djs-element djs-connection" data-element-id="sid-D81E7B0F-856D-42D0-A500-F63664343A93" style="display: block;"><g class="djs-visual"><defs><marker id="marker-1tnnm1s2rxbuc3hch0yez97lm" viewBox="0 0 20 20" refX="11" refY="10" markerWidth="10" markerHeight="10" orient="auto"><path d="M 1 5 L 11 10 L 1 15 Z" style="stroke-linecap: round; stroke-linejoin: round; stroke: rgb(34, 36, 42); stroke-width: 1px; fill: rgb(34, 36, 42);"/></marker></defs><path data-corner-radius="5" style="fill: none; stroke-linecap: round; stroke-linejoin: round; stroke: rgb(34, 36, 42); stroke-width: 2px; marker-end: url('#marker-1tnnm1s2rxbuc3hch0yez97lm');" d="M1071,280L1096,280"/></g><path d="M1071,280L1096,280" class="djs-hit djs-hit-stroke" style="fill: none; stroke-opacity: 0; stroke: white; stroke-width: 15px;"/><rect x="1066" y="275" rx="4" width="35" height="10" class="djs-outline" style="fill: none;"/></g></g><g class="djs-group"><g class="djs-element djs-connection" data-element-id="sid-7C6D09EA-66A1-4A0F-8F98-4FF9C886DACE" style="display: block;"><g class="djs-visual"><defs><marker id="marker-bcvu8j5iiok8aurhgi8zxclqv" viewBox="0 0 20 20" refX="11" refY="10" markerWidth="10" markerHeight="10" orient="auto"><path d="M 1 5 L 11 10 L 1 15 Z" style="stroke-linecap: round; stroke-linejoin: round; stroke: rgb(34, 36, 42); stroke-width: 1px; fill: rgb(34, 36, 42);"/></marker></defs><path data-corner-radius="5" style="fill: none; stroke-linecap: round; stroke-linejoin: round; stroke: rgb(34, 36, 42); stroke-width: 2px; marker-end: url('#marker-bcvu8j5iiok8aurhgi8zxclqv');" d="M775,205L810,205"/></g><path d="M775,205L810,205" class="djs-hit djs-hit-stroke" style="fill: none; stroke-opacity: 0; stroke: white; stroke-width: 15px;"/><rect x="770" y="200" rx="4" width="45" height="10" class="djs-outline" style="fill: none;"/></g></g><g class="djs-group"><g class="djs-element djs-connection" data-element-id="sid-59066876-04CA-46A4-9817-C161DC13F56B" style="display: block;"><g class="djs-visual"><defs><marker id="marker-3ebigmqfi625pyy6vvv1tp3pw" viewBox="0 0 20 20" refX="11" refY="10" markerWidth="10" markerHeight="10" orient="auto"><path d="M 1 5 L 11 10 L 1 15 Z" style="stroke-linecap: round; stroke-linejoin: round; stroke: rgb(34, 36, 42); stroke-width: 1px; fill: rgb(34, 36, 42);"/></marker></defs><path data-corner-radius="5" style="fill: none; stroke-linecap: round; stroke-linejoin: round; stroke: rgb(34, 36, 42); stroke-width: 2px; marker-end: url('#marker-3ebigmqfi625pyy6vvv1tp3pw');" d="M645.5,260L645.5,210C645.5,207.5,648,205,650.5,205L675,205"/></g><path d="M645.5,260L645.5,205L675,205" class="djs-hit djs-hit-stroke" style="fill: none; stroke-opacity: 0; stroke: white; stroke-width: 15px;"/><rect x="640.5" y="200" rx="4" width="39.5" height="65" class="djs-outline" style="fill: none;"/></g></g><g class="djs-group"><g class="djs-element djs-connection" data-element-id="sid-06DA396D-658B-4678-8A99-CD17B13C0621" style="display: block;"><g class="djs-visual"><defs><marker id="marker-6ez2b87mj9vd8b0y33zew9g2w" viewBox="0 0 20 20" refX="11" refY="10" markerWidth="10" markerHeight="10" orient="auto"><path d="M 1 5 L 11 10 L 1 15 Z" style="stroke-linecap: round; stroke-linejoin: round; stroke: rgb(34, 36, 42); stroke-width: 1px; fill: rgb(34, 36, 42);"/></marker></defs><path data-corner-radius="5" style="fill: none; stroke-linecap: round; stroke-linejoin: round; stroke: rgb(34, 36, 42); stroke-width: 2px; marker-end: url('#marker-6ez2b87mj9vd8b0y33zew9g2w');" d="M910,355L921.5,355C924,355,926.5,352.5,926.5,350L926.5,300"/></g><path d="M910,355L926.5,355L926.5,300" class="djs-hit djs-hit-stroke" style="fill: none; stroke-opacity: 0; stroke: white; stroke-width: 15px;"/><rect x="905" y="295" rx="4" width="26.5" height="65" class="djs-outline" style="fill: none;"/></g></g><g class="djs-group"><g class="djs-element djs-connection" data-element-id="sid-2AFC1D6B-9993-4A61-9AD3-DE03C842A001" style="display: block;"><g class="djs-visual"><defs><marker id="marker-1vlboef234s81n8eq3tfhzwkd" viewBox="0 0 20 20" refX="11" refY="10" markerWidth="10" markerHeight="10" orient="auto"><path d="M 1 5 L 11 10 L 1 15 Z" style="stroke-linecap: round; stroke-linejoin: round; stroke: rgb(34, 36, 42); stroke-width: 1px; fill: rgb(34, 36, 42);"/></marker></defs><path data-corner-radius="5" style="fill: none; stroke-linecap: round; stroke-linejoin: round; stroke: rgb(34, 36, 42); stroke-width: 2px; marker-end: url('#marker-1vlboef234s81n8eq3tfhzwkd');" d="M470,280L497,280"/></g><path d="M470,280L497,280" class="djs-hit djs-hit-stroke" style="fill: none; stroke-opacity: 0; stroke: white; stroke-width: 15px;"/><rect x="465" y="275" rx="4" width="37" height="10" class="djs-outline" style="fill: none;"/></g></g><g class="djs-group"><g class="djs-element djs-connection" data-element-id="sid-69C2F534-267E-43B4-843C-6D9E77577C13" style="display: block;"><g class="djs-visual"><defs><marker id="marker-dsg9mkh08qh9g51f7s43fgz79" viewBox="0 0 20 20" refX="11" refY="10" markerWidth="10" markerHeight="10" orient="auto"><path d="M 1 5 L 11 10 L 1 15 Z" style="stroke-linecap: round; stroke-linejoin: round; stroke: rgb(34, 36, 42); stroke-width: 1px; fill: rgb(34, 36, 42);"/></marker></defs><path data-corner-radius="5" style="fill: none; stroke-linecap: round; stroke-linejoin: round; stroke: rgb(34, 36, 42); stroke-width: 2px; marker-end: url('#marker-dsg9mkh08qh9g51f7s43fgz79');" d="M345.5,160L345.5,90C345.5,87.5,348,85,350.5,85L370,85"/></g><path d="M345.5,160L345.5,85L370,85" class="djs-hit djs-hit-stroke" style="fill: none; stroke-opacity: 0; stroke: white; stroke-width: 15px;"/><rect x="340.5" y="80" rx="4" width="34.5" height="85" class="djs-outline" style="fill: none;"/></g></g><g class="djs-group"><g class="djs-element djs-shape" data-element-id="sid-69C2F534-267E-43B4-843C-6D9E77577C13_label" style="display: block;" transform="matrix(1 0 0 1 276 82)"><g class="djs-visual"><text lineHeight="1.2" class="djs-label" style="font-family: Arial, sans-serif; font-size: 11px; font-weight: normal; fill: rgb(34, 36, 42);"><tspan x="9.584005355834961" y="9.899999999999999">product</tspan><tspan x="0" y="23.099999999999998">not in stock</tspan></text></g><rect class="djs-hit djs-hit-all" x="0" y="0" width="56" height="27" style="fill: none; stroke-opacity: 0; stroke: white; stroke-width: 15px;"/><rect x="-5" y="-5" rx="4" width="66" height="37" class="djs-outline" style="fill: none;"/></g></g><g class="djs-group"><g class="djs-element djs-connection" data-element-id="sid-73CD4AF7-9457-4A4C-9B31-FC73C6A7B408" style="display: block;"><g class="djs-visual"><defs><marker id="marker-aknsw6kk7suxcyy0fox8w2rlw" viewBox="0 0 20 20" refX="11" refY="10" markerWidth="10" markerHeight="10" orient="auto"><path d="M 1 5 L 11 10 L 1 15 Z" style="stroke-linecap: round; stroke-linejoin: round; stroke: rgb(34, 36, 42); stroke-width: 1px; fill: rgb(34, 36, 42);"/></marker></defs><path data-corner-radius="5" style="fill: none; stroke-linecap: round; stroke-linejoin: round; stroke: rgb(34, 36, 42); stroke-width: 2px; marker-end: url('#marker-aknsw6kk7suxcyy0fox8w2rlw');" d="M345.5,200L345.5,275C345.5,277.5,348,280,350.5,280L370,280"/></g><path d="M345.5,200L345.5,280L370,280" class="djs-hit djs-hit-stroke" style="fill: none; stroke-opacity: 0; stroke: white; stroke-width: 15px;"/><rect x="340.5" y="195" rx="4" width="34.5" height="90" class="djs-outline" style="fill: none;"/></g></g><g class="djs-group"><g class="djs-element djs-shape" data-element-id="sid-73CD4AF7-9457-4A4C-9B31-FC73C6A7B408_label" style="display: block;" transform="matrix(1 0 0 1 296 253)"><g class="djs-visual"><text lineHeight="1.2" class="djs-label" style="font-family: Arial, sans-serif; font-size: 11px; font-weight: normal; fill: rgb(34, 36, 42);"><tspan x="0.41241455078125" y="9.899999999999999">product</tspan><tspan x="0" y="23.099999999999998">in stock</tspan></text></g><rect class="djs-hit djs-hit-all" x="0" y="0" width="38" height="27" style="fill: none; stroke-opacity: 0; stroke: white; stroke-width: 15px;"/><rect x="-5" y="-5" rx="4" width="48" height="37" class="djs-outline" style="fill: none;"/></g></g></svg>